<svg width="42" height="47" viewBox="0 0 42 47" fill="none" xmlns="http://www.w3.org/2000/svg">
<path fill-rule="evenodd" clip-rule="evenodd" d="M33.0305 25.005C34.9624 26.9304 39.0859 28.098 40.6592 28.3897C39.1138 30.0401 36.5815 29.6496 35.4607 29.4767C34.9098 29.3918 34.7 29.3594 35.116 29.6479C35.9807 30.2474 36.9743 30.1827 37.9731 30.1176C38.4323 30.0877 38.8926 30.0577 39.342 30.0921C40.769 30.2015 41.8667 31.2342 41.4276 31.6718C41.2461 31.8527 40.3796 31.8548 39.3248 31.8574C37.8284 31.8611 35.9529 31.8656 35.116 32.3829C34.7257 32.6241 34.1468 33.0156 33.4755 33.4695C31.692 34.6754 29.2572 36.3218 27.9812 36.759L27.9297 36.7766C26.1865 37.3736 24.2454 38.0385 23.865 40.2051C23.6469 41.4473 23.871 42.2509 24.0754 42.9837C24.231 43.5418 24.3752 44.0588 24.3041 44.6973C24.1394 46.1742 20.6818 46.7692 20.572 46.6051C20.5253 46.5353 20.6675 46.4171 20.8335 46.2791C21.0576 46.0928 21.3252 45.8704 21.2306 45.6819C21.144 45.5092 20.4952 45.5145 19.8917 45.5195C19.3483 45.524 18.8417 45.5281 18.8157 45.4017C18.7871 45.2624 19.1774 45.0597 19.5492 44.8668C19.8894 44.6902 20.214 44.5216 20.1878 44.4171C20.1661 44.3306 19.9517 44.2746 19.7468 44.221C19.5368 44.1661 19.3368 44.1139 19.3646 44.0342C19.3902 43.9608 19.9793 43.9216 20.6274 43.8785C21.3689 43.8292 22.1877 43.7747 22.3283 43.6579C22.6576 43.3844 23.0966 42.0716 21.6148 39.9383C20.4293 38.2316 17.8279 37.805 16.6753 37.805L18.5962 38.6188C18.5719 38.9276 18.5274 39.3481 18.4789 39.8073C18.3812 40.7311 18.2669 41.8115 18.2669 42.4545C18.2669 43.0238 18.3897 43.1524 18.4843 43.2515C18.5897 43.3618 18.66 43.4355 18.4865 44.0409C18.1572 45.1896 13.7665 45.7913 13.7116 45.1349C13.684 44.805 14.0585 44.6961 14.389 44.6001C14.7162 44.505 15.0004 44.4224 14.8093 44.1503C14.6028 43.8562 14.1108 43.8922 13.7255 43.9203C13.394 43.9446 13.1415 43.963 13.2177 43.7607C13.3197 43.4896 13.9484 43.41 14.425 43.3496C14.7177 43.3126 14.9531 43.2828 14.9739 43.2203C15.0082 43.1179 14.8498 43.0768 14.6325 43.0204C14.5018 42.9865 14.3498 42.9471 14.2056 42.8855C13.8982 42.7542 14.2056 42.6253 14.48 42.6733C14.7544 42.7214 16.7851 42.6551 16.84 42.3451C17.1034 39.1506 16.0167 38.2359 15.0288 37.5795C14.787 37.4188 14.4135 37.2696 13.9295 37.0763C12.4363 36.4799 9.8903 35.463 6.90612 32.3896C2.98752 28.3538 4.49185 25.1401 6.34974 21.171C6.83377 20.1369 7.34179 19.0516 7.78417 17.8872C9.49652 13.3798 8.6623 10.9219 8.11347 9.73675C6.22663 9.78376 5.25754 8.80711 4.6856 8.23071C4.5921 8.13648 4.5092 8.05294 4.43465 7.98632C1.66854 7.98632 0.537952 7.54872 0.484717 6.94701C0.431482 6.3453 2.95446 5.96239 2.95446 5.96239C2.95446 5.96239 3.73114 5.68747 4.05047 5.57949C4.05047 5.17683 4.40873 4.95138 4.67649 4.78289C4.78702 4.71333 4.88214 4.65348 4.93025 4.59487C4.05212 4.37607 3.99724 3.61026 4.21677 3.44615C4.39239 3.31487 5.14986 3.61693 5.47916 3.83574C5.83041 2.74172 5.55234 1.19186 5.36939 0.55368C7.69644 -0.627858 9.30268 0.35311 9.81493 0.991287C8.71818 3.80213 9.11236 3.98773 9.43685 4.14052C9.45334 4.14828 9.4697 4.15598 9.48563 4.16392C9.61607 4.22893 9.84123 4.19847 10.0622 4.16858C10.399 4.12302 10.7261 4.07878 10.693 4.37607C10.6584 4.68612 9.43066 4.97778 9.43066 4.97778C9.43066 4.97778 10.712 5.59936 12.0651 8.69743C13.5836 12.1744 13.1456 16.0124 12.8522 18.5834C12.6748 20.1381 12.5503 21.2295 12.9432 21.4974C13.9163 22.161 15.7973 21.3697 16.9364 20.8905C17.018 20.8562 17.0959 20.8234 17.1693 20.793C23.3711 19.5349 30.6156 22.5981 33.0305 25.005ZM12.3395 13.2923C12.2078 8.65367 10.3089 6.21766 9.37585 5.57949L9.10143 6.8376C9.62831 7.45025 10.382 8.91624 10.693 9.57265H11.1321C11.7029 10.5791 12.1749 12.4718 12.3395 13.2923ZM15.3032 22.6461C15.9252 22.245 17.9925 21.1692 21.505 21.388C25.0175 21.6068 28.4203 22.9197 31.1644 24.8889L25.5115 23.7949L24.4138 24.3419C22.8954 23.4849 19.0792 22.121 15.3032 22.6461ZM9.2112 1.09402C9.03557 1.26906 8.44283 2.57094 8.38795 3.82906L7.72935 3.71966L7.94889 0.65641C8.66237 0.711111 9.08314 0.984615 9.2112 1.09402ZM11.6035 22.069C11.3162 22.203 10.8744 22.409 10.1991 22.865C10.7296 21.5339 12.3944 15.535 12.3944 15.535C12.3944 15.535 12.12 20.5128 12.12 21.3333C12.12 21.8282 12.0402 21.8654 11.6035 22.069ZM3.33699 6.32123C3.33699 6.18723 3.9407 6.02312 3.9407 6.21183C3.9407 6.40054 3.33699 6.45523 3.33699 6.32123ZM5.60342 6.17094C5.38389 5.84273 5.71298 5.29572 6.04238 5.18632C6.37179 5.07692 6.99736 5.13162 7.08517 5.78803C7.19493 6.60854 5.82296 6.49914 5.60342 6.17094Z" fill="white"/>
</svg>
