<svg width="40" height="40" viewBox="0 0 40 40" fill="none" xmlns="http://www.w3.org/2000/svg">
<g clip-path="url(#clip0_4075_34)">
<rect width="40" height="40" rx="18" fill="#202020"/>
<g clip-path="url(#clip1_4075_34)">
<path d="M28.8867 15.3993C28.9003 15.5962 28.9003 15.7931 28.9003 15.9918C28.9003 22.0459 24.2914 29.0281 15.8639 29.0281V29.0245C13.3744 29.0281 10.9366 28.315 8.84082 26.9705C9.20282 27.014 9.56663 27.0358 9.93134 27.0367C11.9944 27.0385 13.9986 26.3463 15.6217 25.0716C13.6611 25.0344 11.9418 23.7561 11.3412 21.8898C12.028 22.0223 12.7357 21.9951 13.4098 21.8109C11.2723 21.3791 9.73447 19.501 9.73447 17.32C9.73447 17.3 9.73447 17.281 9.73447 17.2619C10.3714 17.6167 11.0845 17.8135 11.8139 17.8353C9.8007 16.4898 9.18013 13.8116 10.3959 11.7177C12.7221 14.5801 16.1542 16.3202 19.8386 16.5044C19.4693 14.913 19.9738 13.2455 21.1641 12.1268C23.0095 10.3922 25.9118 10.4811 27.6465 12.3255C28.6726 12.1232 29.656 11.7467 30.556 11.2132C30.214 12.2738 29.4982 13.1747 28.5419 13.7472C29.4501 13.6401 30.3374 13.397 31.173 13.0259C30.5579 13.9477 29.7831 14.7506 28.8867 15.3993Z" fill="white"/>
</g>
</g>
<defs>
<clipPath id="clip0_4075_34">
<rect width="40" height="40" fill="white"/>
</clipPath>
<clipPath id="clip1_4075_34">
<rect width="22.5" height="22.5" fill="white" transform="translate(8.75 8.75)"/>
</clipPath>
</defs>
</svg>
