<svg width="22" height="22" viewBox="0 0 22 22" fill="none" xmlns="http://www.w3.org/2000/svg">
<path d="M6.59957 0.449492C5.46907 0.502829 4.69706 0.683242 4.02216 0.948442C3.32367 1.22065 2.73164 1.58594 2.14259 2.17712C1.55354 2.76829 1.1908 3.36074 0.920505 4.06029C0.658917 4.73668 0.481692 5.50933 0.431755 6.64047C0.381817 7.77161 0.370767 8.13519 0.376292 11.0205C0.381817 13.9058 0.394567 14.2675 0.449392 15.401C0.503367 16.5313 0.683142 17.3031 0.948342 17.9782C1.22098 18.6767 1.58584 19.2685 2.17723 19.8578C2.76862 20.447 3.36064 20.8089 4.06189 21.0796C4.73764 21.3408 5.51051 21.5189 6.64143 21.5684C7.77236 21.6179 8.13637 21.6294 11.0208 21.6238C13.9053 21.6183 14.2685 21.6056 15.4017 21.5518C16.535 21.498 17.3028 21.317 17.9781 21.0531C18.6766 20.7798 19.2688 20.4156 19.8577 19.824C20.4465 19.2324 20.809 18.6395 21.0791 17.9395C21.3409 17.2638 21.5188 16.4909 21.5679 15.3608C21.6174 14.2267 21.6291 13.8646 21.6235 10.9797C21.618 8.09482 21.605 7.73314 21.5513 6.60009C21.4975 5.46704 21.3175 4.69758 21.0525 4.02204C20.7795 3.32355 20.415 2.73217 19.8239 2.14248C19.2327 1.55279 18.6394 1.19048 17.9396 0.921029C17.2635 0.659442 16.491 0.481154 15.3601 0.432279C14.2292 0.383404 13.8652 0.370867 10.9796 0.376392C8.09408 0.381917 7.73283 0.394242 6.59957 0.449492ZM6.72367 19.6569C5.68773 19.6119 5.12524 19.4398 4.75039 19.2957C4.25399 19.1044 3.90039 18.8732 3.52682 18.5033C3.15324 18.1333 2.92374 17.7784 2.72994 17.2831C2.58438 16.9083 2.40907 16.3464 2.36062 15.3105C2.30792 14.1908 2.29687 13.8546 2.2907 11.018C2.28454 8.1813 2.29538 7.84556 2.34447 6.72547C2.38867 5.69038 2.56185 5.12725 2.70572 4.75262C2.89697 4.25558 3.12732 3.90262 3.49813 3.52925C3.86894 3.15589 4.22275 2.92597 4.71852 2.73217C5.09294 2.58597 5.65479 2.41214 6.69031 2.36284C7.81082 2.30972 8.14657 2.29909 10.9828 2.29293C13.819 2.28677 14.1556 2.29739 15.2766 2.34669C16.3117 2.39174 16.875 2.56323 17.2492 2.70794C17.7458 2.89919 18.0992 3.1289 18.4726 3.50036C18.8459 3.8718 19.0761 4.22434 19.2699 4.72117C19.4163 5.09453 19.5901 5.65617 19.639 6.69232C19.6923 7.81283 19.7044 8.14879 19.7095 10.9848C19.7146 13.8208 19.7047 14.1577 19.6556 15.2773C19.6103 16.3133 19.4386 16.876 19.2943 17.2512C19.1031 17.7474 18.8725 18.1012 18.5015 18.4744C18.1305 18.8475 17.7771 19.0775 17.2811 19.2713C16.9071 19.4172 16.3446 19.5915 15.3099 19.6408C14.1894 19.6935 13.8537 19.7045 11.0164 19.7107C8.17908 19.7169 7.84439 19.7054 6.72388 19.6569M15.3854 5.32148C15.3858 5.57367 15.461 5.82007 15.6015 6.02952C15.7419 6.23896 15.9414 6.40205 16.1745 6.49815C16.4077 6.59425 16.6641 6.61905 16.9114 6.56941C17.1586 6.51976 17.3856 6.39791 17.5636 6.21926C17.7416 6.04061 17.8626 5.81318 17.9113 5.56575C17.9601 5.31831 17.9343 5.06198 17.8374 4.82917C17.7404 4.59637 17.5766 4.39754 17.3667 4.25784C17.1567 4.11815 16.91 4.04385 16.6578 4.04435C16.3198 4.04503 15.9958 4.17995 15.7572 4.41945C15.5185 4.65894 15.3848 4.9834 15.3854 5.32148ZM5.54451 11.0107C5.55046 14.024 7.99761 16.4612 11.0102 16.4554C14.0228 16.4497 16.4617 14.0027 16.456 10.9895C16.4502 7.97624 14.0024 5.53844 10.9894 5.54439C7.97636 5.55034 5.53877 7.99792 5.54451 11.0107ZM7.45828 11.0069C7.45689 10.3064 7.66326 9.62126 8.05128 9.03806C8.43929 8.45485 8.99154 7.99981 9.63817 7.73046C10.2848 7.46112 10.9968 7.38957 11.6841 7.52487C12.3714 7.66017 13.0031 7.99623 13.4994 8.49057C13.9957 8.98491 14.3343 9.61532 14.4723 10.3021C14.6103 10.9888 14.5416 11.7011 14.2748 12.3488C14.008 12.9965 13.5552 13.5505 12.9735 13.9409C12.3919 14.3312 11.7075 14.5403 11.007 14.5416C10.5419 14.5426 10.0811 14.452 9.65107 14.2748C9.22098 14.0977 8.83001 13.8376 8.50046 13.5094C8.17092 13.1811 7.90927 12.7912 7.73045 12.3618C7.55163 11.9324 7.45914 11.472 7.45828 11.0069Z" fill="white"/>
</svg>
